<?xml version="1.0" standalone="no"?>
<!DOCTYPE svg PUBLIC "-//W3C//DTD SVG 20010904//EN"
 "http://www.w3.org/TR/2001/REC-SVG-20010904/DTD/svg10.dtd">
<svg version="1.0" xmlns="http://www.w3.org/2000/svg"
 width="1080.000000pt" height="1080.000000pt" viewBox="0 0 1080.000000 1080.000000"
 preserveAspectRatio="xMidYMid meet">

<g transform="translate(0.000000,1080.000000) scale(0.100000,-0.100000)"
fill="#014495" stroke="none">
<path d="M0 5400 l0 -5400 5400 0 5400 0 0 5400 0 5400 -5400 0 -5400 0 0
-5400z m7235 3360 c843 -27 1401 -52 1413 -65 11 -11 -46 -72 -301 -328 -676
-676 -1954 -1887 -1991 -1887 -9 0 -7 2295 1 2304 5 4 64 5 133 1 69 -3 404
-14 745 -25z m-1086 -1215 c6 -517 8 -1005 3 -1085 l-7 -145 -935 3 c-514 1
-1001 6 -1081 10 l-146 7 440 465 c241 256 723 768 1070 1138 l632 672 6 -62
c4 -35 12 -486 18 -1003z m2631 739 c26 -10 40 -23 40 -34 0 -33 -105 -114
-289 -224 -167 -99 -591 -329 -597 -323 -1 1 23 24 54 51 32 27 135 119 231
205 198 177 304 262 376 299 91 46 124 50 185 26z m-5810 -209 c30 -8 84 -34
120 -59 155 -106 870 -875 1055 -1134 37 -52 37 -55 23 -84 -32 -68 -284 -318
-407 -403 -125 -87 -182 -95 -708 -95 l-413 0 0 895 0 895 138 0 c88 0 157 -5
192 -15z m-532 -275 c11 -129 2 -238 -21 -273 -36 -56 -132 -77 -350 -77 -125
0 -147 2 -140 14 4 8 116 126 248 262 275 284 246 275 263 74z m3407 -1709
c139 -12 209 -27 226 -47 13 -16 31 37 -281 -814 -278 -761 -325 -886 -432
-1155 -108 -271 -201 -475 -216 -475 -9 0 -182 181 -787 825 -176 187 -592
626 -924 975 -332 349 -620 652 -640 673 l-36 38 1485 -4 c960 -3 1527 -8
1605 -16z m320 -2268 c5 -1215 5 -1693 -3 -1693 -10 0 -569 307 -687 377 -176
104 -336 229 -350 272 -3 11 27 113 69 232 160 461 621 1718 821 2244 59 154
112 294 118 310 l11 30 7 -40 c4 -22 10 -802 14 -1732z"/>
</g>
</svg>
